<svg xmlns="http://www.w3.org/2000/svg" viewBox="-86.89 -44.14 82.68 101.79">
<!-- GERADO por logos/gerar-mapas.mjs. Contorno real, gratícula de 15°. -->
<defs><path id="c" d="M-48.03 4.78L-48.76 5.35L-47.56 5.46L-47.07 9.06L-45.7 10.26L-46.08 15.26L-43.97 14.27L-40.24 15.8L-39.67 18.34L-38.92 13.21L-34.96 8.37L-35.38 5.27L-39.94 2.87L-44.66 3.01L-45.85 1.05ZM-81.84 -23.16L-74.16 -20.17L-77.72 -19.86L-77.23 -20.64L-81.84 -22.67L-84.89 -21.86ZM-71.78 -19.72L-71.77 -18.04L-74.46 -18.39L-72.38 -18.57L-73.32 -19.86ZM-71.77 -18.04L-71.56 -19.9L-68.34 -18.61ZM-77.26 -18.46L-76.21 -17.91L-78.34 -18.29ZM-57.61 30.19L-58.52 34.3L-56.73 36.96L-58.18 38.44L-62.34 38.8L-62.39 40.89L-65.07 40.81L-63.62 42.7L-64.97 42.67L-65.64 45.01L-67.6 46.05L-65.81 47.94L-68.98 50L-69.46 51.58L-68.4 52.31L-71.97 51.96L-73.58 49.58L-71.16 44.56L-71.93 40.69L-68.51 24.63L-66.22 21.8L-64.32 22.83L-62.84 22L-57.65 25.33L-58.6 27.31L-55.72 27.41L-53.89 25.67L-53.84 27.12ZM-68.65 54.85L-68.63 52.65L-65.18 54.68ZM-70.42 18.35L-69.09 18.05L-67.01 23L-70.52 31.15L-69.85 34.22L-72.14 42.58L-71.16 44.56L-73.58 49.58L-71.97 51.96L-68.46 52.29L-71.3 53.88L-72.41 53.35L-71.23 52.81L-73.05 53.24L-71.51 52.61L-74.01 52.64L-72.52 52.25L-75.09 50.68L-73.81 50.94L-74.58 48L-73.39 48.15L-75.71 46.7L-73.96 45.4L-73.85 46.57L-72.68 44.59L-72.32 41.5L-73.98 40.97L-71.45 32.66ZM-68.63 52.65L-68.65 54.85L-71.9 54.6L-70.31 54.53L-70.53 53.63L-69.25 54.56L-70.38 52.75ZM-8.78 -41.94L-6.21 -41.53L-7.84 -37.01L-9 -37.03L-9.47 -38.73ZM-49.13 24.68L-50.05 22.91L-53.55 22.89L-54.62 25.45L-53.67 26.94L-57.57 30.25L-52.62 32.15L-53.37 33.74L-51.3 30.05L-50.58 30.49L-52.08 32.14L-48.75 28.51L-48.1 25.31ZM-47.68 18.36L-50.27 18.68L-53.11 22.62L-50.05 22.91L-48.1 25.31L-41 22.02L-39.86 16.11L-43.97 14.27L-46.5 14.7Z"/><path id="g" d="M-75 -44.14V57.65M-60 -44.14V57.65M-45 -44.14V57.65M-30 -44.14V57.65M-15 -44.14V57.65M-86.89 -30H-4.21M-86.89 -15H-4.21M-86.89 0H-4.21M-86.89 15H-4.21M-86.89 30H-4.21M-86.89 45H-4.21"/></defs>
<g fill="none" stroke-linejoin="round">
<use href="#g" stroke="#000" stroke-width="0.116" stroke-opacity="0.55" y="0.132"/>
<use href="#g" stroke="#fff" stroke-width="0.083" stroke-opacity="0.26"/>
<use href="#c" stroke="#000" stroke-width="0.174" stroke-opacity="0.96" y="0.132"/>
<use href="#c" stroke="#fff" stroke-width="0.174" stroke-opacity="0.44"/>
</g>
</svg>
