<svg xmlns="http://www.w3.org/2000/svg" viewBox="-76 -7.26 43.2 43">
<!-- GERADO por logos/gerar-mapas.mjs. Contorno real, gratícula de 15°. -->
<defs><path id="c" d="M-66.88 -1.22L-65.47 -0.69L-63.43 -2.16L-64.79 -4.28L-62.86 -3.59L-60.65 -5.22L-58.86 -1.2L-55.96 -2.52L-52.97 -2.18L-51.46 -4.31L-49.9 -1.16L-52.66 1.55L-50.9 0.94L-49.32 1.73L-49.64 2.66L-47.27 0.65L-44.65 1.75L-44.72 3.2L-39.97 2.86L-35.24 5.57L-34.97 8.41L-38.85 12.79L-39.16 17.7L-41 22L-48.73 25.37L-48.8 28.58L-52.04 32.12L-50.58 30.44L-51.3 30.04L-53.37 33.74L-53.76 32.06L-57.61 30.19L-53.67 26.29L-55.8 22.35L-57.96 22.11L-58.34 16.28L-60.18 16.27L-60.51 13.79L-64.99 11.98L-65.4 9.71L-70.64 11.01L-70.54 9.44L-72.18 10L-74 7.56L-72.89 5.12L-69.97 4.3L-69.85 -1.71ZM-49.63 0.23L-48.39 0.3L-48.83 1.39L-50.51 1.79L-50.65 0.27ZM-52.39 22.11L-50.27 18.68L-47.28 18.04L-46.11 12.92L-50.62 12.82L-50.22 9.84L-56.75 9.41L-58.14 7.36L-58.44 8.8L-61.58 8.8L-61.55 10.99L-59.92 11.34L-60.17 16.27L-58.32 16.27L-57.45 18.23L-58 22.09L-55.84 22.29L-54.29 24.07ZM-48.03 4.78L-48.76 5.35L-47.56 5.46L-47.07 9.06L-45.7 10.26L-46.08 15.26L-43.97 14.27L-40.24 15.8L-39.67 18.34L-38.92 13.21L-34.96 8.37L-35.38 5.27L-39.94 2.87L-44.66 3.01L-45.85 1.05ZM-47.68 18.36L-50.27 18.68L-53.11 22.62L-50.05 22.91L-48.1 25.31L-41 22.02L-39.86 16.11L-43.97 14.27L-46.5 14.7ZM-49.13 24.68L-50.05 22.91L-53.55 22.89L-54.62 25.45L-53.67 26.94L-57.57 30.25L-52.62 32.15L-53.37 33.74L-51.3 30.05L-50.58 30.49L-52.08 32.14L-48.75 28.51L-48.1 25.31Z"/><path id="g" d="M-75 -7.26V35.74M-60 -7.26V35.74M-45 -7.26V35.74M-76 0H-32.8M-76 15H-32.8M-76 30H-32.8"/></defs>
<g fill="none" stroke-linejoin="round">
<use href="#g" stroke="#000" stroke-width="0.06" stroke-opacity="0.55" y="0.069"/>
<use href="#g" stroke="#fff" stroke-width="0.043" stroke-opacity="0.26"/>
<use href="#c" stroke="#000" stroke-width="0.091" stroke-opacity="0.96" y="0.069"/>
<use href="#c" stroke="#fff" stroke-width="0.091" stroke-opacity="0.44"/>
</g>
</svg>
